<!DOCTYPE svg PUBLIC "-//W3C//DTD SVG 1.1//EN" "http://www.w3.org/Graphics/SVG/1.1/DTD/svg11.dtd">

<!-- Uploaded to: SVG Repo, www.svgrepo.com, Transformed by: SVG Repo Mixer Tools -->
<svg xmlns:dc="http://purl.org/dc/elements/1.1/" xmlns:cc="http://creativecommons.org/ns#" xmlns:rdf="http://www.w3.org/1999/02/22-rdf-syntax-ns#" xmlns:svg="http://www.w3.org/2000/svg" xmlns="http://www.w3.org/2000/svg" version="1.1" width="64px" height="64px" viewBox="-3.22 -3.22 20.44 20.44" id="svg2" fill="#000000" stroke="#000000" stroke-width="0.00014">

<g id="SVGRepo_bgCarrier" stroke-width="0" transform="translate(0,0), scale(1)">

<rect x="-3.22" y="-3.22" width="20.44" height="20.44" rx="10.22" fill="#0070ff" strokewidth="0"/>

</g>

<g id="SVGRepo_tracerCarrier" stroke-linecap="round" stroke-linejoin="round" stroke="#CCCCCC" stroke-width="0.11200000000000002"/>

<g id="SVGRepo_iconCarrier"> <metadata id="metadata8"> <rdf:rdf> <cc:work rdf:about=""> <dc:format>image/svg+xml</dc:format> <dc:type rdf:resource="http://purl.org/dc/dcmitype/StillImage"/> <dc:title/> </cc:work> </rdf:rdf> </metadata> <defs id="defs6"/> <rect width="14" height="14" x="0" y="0" id="canvas" style="fill:none;stroke:none;visibility:hidden"/> <path d="M 7,0 C 6.75,0.0032 6.5,0.1644239 6.5,0.5 L 6.5,4.375 1,7 13,7 7.5,4.375 7.5,0.5 C 7.5,0.1516409 7.25,-0.0031957 7,0 z M 8,0 8,3 12,3 10,1.5 12,0 z m -7,8 0,1 1,0 0,4 -1,0 0,1 12,0 0,-1 -1,0 0,-4 1,0 0,-1 z m 6,1.5 c 1,0 2,0.5 2,1.5 l 0,2 -4,0 0,-2 C 5,10 6,9.5 7,9.5 z" id="town-hall" style="fill:#ffffff;fill-opacity:1;stroke:none"/> </g>

</svg>